<?xml version="1.0" standalone="no"?>
<!DOCTYPE svg PUBLIC "-//W3C//DTD SVG 20010904//EN"
 "http://www.w3.org/TR/2001/REC-SVG-20010904/DTD/svg10.dtd">
<svg version="1.0" xmlns="http://www.w3.org/2000/svg"
 width="700.000000pt" height="700.000000pt" viewBox="0 0 700.000000 700.000000"
 preserveAspectRatio="xMidYMid meet">
<metadata>
Created by potrace 1.11, written by Peter Selinger 2001-2013
</metadata>
<g transform="translate(0.000000,700.000000) scale(0.100000,-0.100000)"
fill="#000000" stroke="none">
<path d="M569 6740 c-1 -20 -1 -642 0 -657 1 -10 97 -13 444 -13 l442 0 304
-305 304 -306 -34 -35 c-19 -20 -81 -84 -139 -143 -126 -128 -170 -180 -204
-245 -14 -27 -30 -54 -35 -60 -4 -6 -11 -22 -14 -36 -3 -14 -15 -59 -25 -100
-19 -73 -19 -135 -19 -2005 -1 -1062 3 -1958 8 -1991 14 -105 54 -203 120
-299 100 -146 273 -252 453 -278 63 -9 520 -12 1847 -11 l1764 2 80 21 c232
62 403 223 482 456 l28 80 0 2335 c0 2566 4 2387 -61 2520 -18 36 -48 87 -68
115 -35 48 -271 291 -414 426 -94 88 -211 154 -329 186 -48 13 -2238 15 -2313
3 -165 -28 -272 -95 -487 -305 l-158 -155 -361 362 c-198 200 -373 373 -389
386 -17 12 -55 32 -85 44 -53 20 -70 21 -598 22 -475 1 -542 -1 -543 -14z
m4782 -1019 c4 -21 3 -664 -1 -670 -3 -4 -463 -7 -1023 -7 -896 1 -1018 3
-1021 16 -3 8 -4 162 -4 342 l1 327 1023 -1 c563 0 1025 -4 1025 -7z m-2249
-1704 l343 -342 543 0 542 0 343 343 342 342 241 0 241 0 -1 -242 -1 -243
-341 -341 -342 -341 0 -543 0 -543 341 -341 342 -341 1 -242 1 -243 -241 0
-241 0 -342 342 -343 343 -542 0 -543 0 -343 -342 -343 -343 -238 0 c-182 0
-240 3 -243 13 -2 6 -3 116 -2 242 l2 230 341 340 341 340 0 545 0 545 -341
341 -342 342 -1 237 c-1 130 1 239 3 241 2 2 111 4 242 4 l237 0 344 -343z"/>
<path d="M3645 2650 l0 -340 105 0 c271 -1 441 -1 508 0 l72 0 0 340 0 340
-343 0 -342 0 0 -340z"/>
</g>
</svg>
